<mxfile host="app.diagrams.net" modified="2021-08-04T06:35:22.833Z" agent="5.0 (Windows)" etag="_06PvaL-E1lCR4i4h0J6" version="14.9.3" type="github">
  <diagram id="-1cD4ismlmeg5i5cK3Rm" name="Page-1">
    <mxGraphModel dx="1874" dy="786" grid="1" gridSize="10" guides="1" tooltips="1" connect="1" arrows="1" fold="1" page="1" pageScale="1" pageWidth="827" pageHeight="1169" background="#114B5F" math="0" shadow="0">
      <root>
        <mxCell id="0" />
        <mxCell id="1" parent="0" />
        <mxCell id="drrN_xDI2uD_6-7hLDGH-7" value="&lt;div style=&quot;font-size: 18px&quot;&gt;核心线程池大小&lt;/div&gt;&lt;div style=&quot;font-size: 18px&quot;&gt;最大线程池大小&lt;/div&gt;&lt;div style=&quot;font-size: 18px&quot;&gt;允许线程闲置时间&lt;/div&gt;&lt;div style=&quot;font-size: 18px&quot;&gt;失败处理机制&lt;br style=&quot;font-size: 18px&quot;&gt;&lt;/div&gt;" style="text;html=1;strokeColor=none;fillColor=none;align=left;verticalAlign=middle;whiteSpace=wrap;rounded=0;sketch=0;fontColor=#E4FDE1;spacing=3;fontSize=18;" vertex="1" parent="1">
          <mxGeometry x="510" y="190" width="220" height="20" as="geometry" />
        </mxCell>
        <mxCell id="drrN_xDI2uD_6-7hLDGH-32" style="edgeStyle=orthogonalEdgeStyle;curved=0;rounded=1;sketch=0;orthogonalLoop=1;jettySize=auto;html=1;fontSize=20;fontColor=#E4FDE1;strokeColor=#028090;fillColor=#F45B69;" edge="1" parent="1" source="drrN_xDI2uD_6-7hLDGH-19" target="drrN_xDI2uD_6-7hLDGH-31">
          <mxGeometry relative="1" as="geometry" />
        </mxCell>
        <mxCell id="drrN_xDI2uD_6-7hLDGH-19" value="提交任务" style="rounded=0;whiteSpace=wrap;html=1;sketch=0;fontSize=20;fontColor=#E4FDE1;strokeColor=#028090;fillColor=#F45B69;align=center;" vertex="1" parent="1">
          <mxGeometry x="380" y="775" width="120" height="60" as="geometry" />
        </mxCell>
        <mxCell id="drrN_xDI2uD_6-7hLDGH-20" value="线程池" style="shape=cylinder3;whiteSpace=wrap;html=1;boundedLbl=1;backgroundOutline=1;size=15;rounded=0;sketch=0;fontSize=20;fontColor=#E4FDE1;strokeColor=#028090;fillColor=#F45B69;align=center;" vertex="1" parent="1">
          <mxGeometry x="370" y="410" width="100" height="120" as="geometry" />
        </mxCell>
        <mxCell id="drrN_xDI2uD_6-7hLDGH-21" value="任务队列" style="shape=cylinder3;whiteSpace=wrap;html=1;boundedLbl=1;backgroundOutline=1;size=15;rounded=0;sketch=0;fontSize=20;fontColor=#E4FDE1;strokeColor=#028090;fillColor=#F45B69;align=center;" vertex="1" parent="1">
          <mxGeometry x="870" y="410" width="90" height="110" as="geometry" />
        </mxCell>
        <mxCell id="drrN_xDI2uD_6-7hLDGH-23" style="edgeStyle=orthogonalEdgeStyle;curved=0;rounded=1;sketch=0;orthogonalLoop=1;jettySize=auto;html=1;fontSize=20;fontColor=#E4FDE1;strokeColor=#028090;fillColor=#F45B69;" edge="1" parent="1" source="drrN_xDI2uD_6-7hLDGH-22" target="drrN_xDI2uD_6-7hLDGH-20">
          <mxGeometry relative="1" as="geometry">
            <Array as="points">
              <mxPoint x="680" y="310" />
              <mxPoint x="495" y="310" />
            </Array>
          </mxGeometry>
        </mxCell>
        <mxCell id="drrN_xDI2uD_6-7hLDGH-24" style="edgeStyle=orthogonalEdgeStyle;curved=0;rounded=1;sketch=0;orthogonalLoop=1;jettySize=auto;html=1;fontSize=20;fontColor=#E4FDE1;strokeColor=#028090;fillColor=#F45B69;" edge="1" parent="1" source="drrN_xDI2uD_6-7hLDGH-22" target="drrN_xDI2uD_6-7hLDGH-21">
          <mxGeometry relative="1" as="geometry">
            <Array as="points">
              <mxPoint x="680" y="310" />
              <mxPoint x="855" y="310" />
            </Array>
          </mxGeometry>
        </mxCell>
        <mxCell id="drrN_xDI2uD_6-7hLDGH-22" value="初始化" style="rounded=1;whiteSpace=wrap;html=1;sketch=0;fontSize=20;fontColor=#E4FDE1;strokeColor=#028090;fillColor=#F45B69;align=center;" vertex="1" parent="1">
          <mxGeometry x="620" y="70" width="120" height="60" as="geometry" />
        </mxCell>
        <mxCell id="drrN_xDI2uD_6-7hLDGH-25" value="接受任务数量" style="text;html=1;strokeColor=none;fillColor=none;align=center;verticalAlign=middle;whiteSpace=wrap;rounded=0;sketch=0;fontSize=20;fontColor=#E4FDE1;" vertex="1" parent="1">
          <mxGeometry x="730" y="190" width="140" height="20" as="geometry" />
        </mxCell>
        <mxCell id="drrN_xDI2uD_6-7hLDGH-28" style="edgeStyle=orthogonalEdgeStyle;curved=0;rounded=1;sketch=0;orthogonalLoop=1;jettySize=auto;html=1;exitX=0;exitY=0;exitDx=0;exitDy=0;fontSize=20;fontColor=#E4FDE1;strokeColor=#028090;fillColor=#F45B69;" edge="1" parent="1" source="drrN_xDI2uD_6-7hLDGH-26">
          <mxGeometry relative="1" as="geometry">
            <mxPoint x="280" y="795" as="targetPoint" />
          </mxGeometry>
        </mxCell>
        <mxCell id="drrN_xDI2uD_6-7hLDGH-29" style="edgeStyle=orthogonalEdgeStyle;curved=0;rounded=1;sketch=0;orthogonalLoop=1;jettySize=auto;html=1;entryX=0;entryY=0.5;entryDx=0;entryDy=0;fontSize=20;fontColor=#E4FDE1;strokeColor=#028090;fillColor=#F45B69;" edge="1" parent="1" source="drrN_xDI2uD_6-7hLDGH-26" target="drrN_xDI2uD_6-7hLDGH-19">
          <mxGeometry relative="1" as="geometry" />
        </mxCell>
        <mxCell id="drrN_xDI2uD_6-7hLDGH-26" value="" style="ellipse;whiteSpace=wrap;html=1;aspect=fixed;rounded=0;sketch=0;fontSize=20;fontColor=#E4FDE1;strokeColor=#028090;fillColor=#F45B69;align=center;" vertex="1" parent="1">
          <mxGeometry x="270" y="790" width="30" height="30" as="geometry" />
        </mxCell>
        <mxCell id="drrN_xDI2uD_6-7hLDGH-30" value="线程数量0" style="text;html=1;align=center;verticalAlign=middle;resizable=0;points=[];autosize=1;strokeColor=none;fontSize=20;fontColor=#E4FDE1;" vertex="1" parent="1">
          <mxGeometry x="500" y="365" width="110" height="30" as="geometry" />
        </mxCell>
        <mxCell id="drrN_xDI2uD_6-7hLDGH-33" style="edgeStyle=orthogonalEdgeStyle;curved=0;rounded=1;sketch=0;orthogonalLoop=1;jettySize=auto;html=1;fontSize=20;fontColor=#E4FDE1;strokeColor=#028090;fillColor=#F45B69;startArrow=none;" edge="1" parent="1" source="drrN_xDI2uD_6-7hLDGH-35">
          <mxGeometry relative="1" as="geometry">
            <mxPoint x="420" y="530" as="targetPoint" />
            <Array as="points" />
          </mxGeometry>
        </mxCell>
        <mxCell id="drrN_xDI2uD_6-7hLDGH-36" style="edgeStyle=orthogonalEdgeStyle;curved=0;rounded=1;sketch=0;orthogonalLoop=1;jettySize=auto;html=1;entryX=1;entryY=0.5;entryDx=0;entryDy=0;entryPerimeter=0;fontSize=20;fontColor=#E4FDE1;strokeColor=#028090;fillColor=#F45B69;" edge="1" parent="1" source="drrN_xDI2uD_6-7hLDGH-31" target="drrN_xDI2uD_6-7hLDGH-21">
          <mxGeometry relative="1" as="geometry">
            <mxPoint x="890" y="800" as="sourcePoint" />
            <Array as="points">
              <mxPoint x="1040" y="800" />
              <mxPoint x="1040" y="485" />
              <mxPoint x="960" y="485" />
            </Array>
          </mxGeometry>
        </mxCell>
        <mxCell id="drrN_xDI2uD_6-7hLDGH-31" value="线程池数量 小于核心线程池数量" style="strokeWidth=2;html=1;shape=mxgraph.flowchart.decision;whiteSpace=wrap;rounded=0;sketch=0;fontSize=20;fontColor=#E4FDE1;fillColor=#F45B69;align=center;" vertex="1" parent="1">
          <mxGeometry x="574" y="715" width="180" height="180" as="geometry" />
        </mxCell>
        <mxCell id="drrN_xDI2uD_6-7hLDGH-34" value="Y" style="text;html=1;align=center;verticalAlign=middle;resizable=0;points=[];autosize=1;strokeColor=none;fontSize=20;fontColor=#E4FDE1;" vertex="1" parent="1">
          <mxGeometry x="649" y="650" width="30" height="30" as="geometry" />
        </mxCell>
        <mxCell id="drrN_xDI2uD_6-7hLDGH-37" value="N" style="text;html=1;align=center;verticalAlign=middle;resizable=0;points=[];autosize=1;strokeColor=none;fontSize=20;fontColor=#E4FDE1;" vertex="1" parent="1">
          <mxGeometry x="880" y="780" width="30" height="30" as="geometry" />
        </mxCell>
        <mxCell id="drrN_xDI2uD_6-7hLDGH-38" value="放入任务队列" style="text;html=1;align=center;verticalAlign=middle;resizable=0;points=[];autosize=1;strokeColor=none;fontSize=20;fontColor=#E4FDE1;" vertex="1" parent="1">
          <mxGeometry x="820" y="740" width="140" height="30" as="geometry" />
        </mxCell>
        <mxCell id="drrN_xDI2uD_6-7hLDGH-40" value="" style="shape=flexArrow;endArrow=classic;html=1;fontSize=20;fontColor=#E4FDE1;strokeColor=#028090;fillColor=#F45B69;width=20;endSize=4.49;" edge="1" parent="1">
          <mxGeometry width="50" height="50" relative="1" as="geometry">
            <mxPoint x="570" y="480" as="sourcePoint" />
            <mxPoint x="760" y="480" as="targetPoint" />
          </mxGeometry>
        </mxCell>
        <mxCell id="drrN_xDI2uD_6-7hLDGH-41" value="闲置线程不停地获取任务并执行" style="text;html=1;align=center;verticalAlign=middle;resizable=0;points=[];autosize=1;strokeColor=none;fontSize=20;fontColor=#E4FDE1;" vertex="1" parent="1">
          <mxGeometry x="520" y="440" width="300" height="30" as="geometry" />
        </mxCell>
        <mxCell id="drrN_xDI2uD_6-7hLDGH-49" style="edgeStyle=orthogonalEdgeStyle;curved=0;rounded=1;sketch=0;orthogonalLoop=1;jettySize=auto;html=1;fontSize=20;fontColor=#E4FDE1;strokeColor=#028090;fillColor=#F45B69;startArrow=none;" edge="1" parent="1" source="drrN_xDI2uD_6-7hLDGH-52">
          <mxGeometry relative="1" as="geometry">
            <mxPoint x="660" y="540" as="targetPoint" />
            <Array as="points" />
          </mxGeometry>
        </mxCell>
        <mxCell id="drrN_xDI2uD_6-7hLDGH-44" value="执行成功" style="strokeWidth=2;html=1;shape=mxgraph.flowchart.decision;whiteSpace=wrap;rounded=0;sketch=0;fontSize=20;fontColor=#E4FDE1;fillColor=#F45B69;align=center;" vertex="1" parent="1">
          <mxGeometry x="990" y="590" width="100" height="100" as="geometry" />
        </mxCell>
        <mxCell id="drrN_xDI2uD_6-7hLDGH-48" value="Y" style="text;html=1;strokeColor=none;fillColor=none;align=center;verticalAlign=middle;whiteSpace=wrap;rounded=0;sketch=0;fontSize=20;fontColor=#E4FDE1;" vertex="1" parent="1">
          <mxGeometry x="1020" y="530" width="40" height="20" as="geometry" />
        </mxCell>
        <mxCell id="drrN_xDI2uD_6-7hLDGH-51" value="N" style="text;html=1;strokeColor=none;fillColor=none;align=center;verticalAlign=middle;whiteSpace=wrap;rounded=0;sketch=0;fontSize=20;fontColor=#E4FDE1;" vertex="1" parent="1">
          <mxGeometry x="910" y="630" width="40" height="20" as="geometry" />
        </mxCell>
        <mxCell id="drrN_xDI2uD_6-7hLDGH-35" value="新增线程，放入线程池，执行任务" style="text;html=1;align=center;verticalAlign=middle;resizable=0;points=[];autosize=1;strokeColor=none;fontSize=20;fontColor=#E4FDE1;" vertex="1" parent="1">
          <mxGeometry x="490" y="520" width="320" height="30" as="geometry" />
        </mxCell>
        <mxCell id="drrN_xDI2uD_6-7hLDGH-53" value="" style="edgeStyle=orthogonalEdgeStyle;curved=0;rounded=1;sketch=0;orthogonalLoop=1;jettySize=auto;html=1;fontSize=20;fontColor=#E4FDE1;strokeColor=#028090;fillColor=#F45B69;endArrow=none;" edge="1" parent="1" source="drrN_xDI2uD_6-7hLDGH-31" target="drrN_xDI2uD_6-7hLDGH-35">
          <mxGeometry relative="1" as="geometry">
            <mxPoint x="420" y="530" as="targetPoint" />
            <mxPoint x="660" y="715" as="sourcePoint" />
            <Array as="points">
              <mxPoint x="664" y="590" />
              <mxPoint x="664" y="590" />
            </Array>
          </mxGeometry>
        </mxCell>
        <mxCell id="drrN_xDI2uD_6-7hLDGH-52" value="&lt;div&gt;如果超过最大线程数&lt;/div&gt;&lt;div&gt;则执行失败策略&lt;/div&gt;" style="text;html=1;align=center;verticalAlign=middle;resizable=0;points=[];autosize=1;strokeColor=none;fontSize=20;fontColor=#E4FDE1;" vertex="1" parent="1">
          <mxGeometry x="700" y="615" width="200" height="50" as="geometry" />
        </mxCell>
        <mxCell id="drrN_xDI2uD_6-7hLDGH-55" value="" style="edgeStyle=orthogonalEdgeStyle;curved=0;rounded=1;sketch=0;orthogonalLoop=1;jettySize=auto;html=1;fontSize=20;fontColor=#E4FDE1;strokeColor=#028090;fillColor=#F45B69;endArrow=none;" edge="1" parent="1" source="drrN_xDI2uD_6-7hLDGH-44" target="drrN_xDI2uD_6-7hLDGH-52">
          <mxGeometry relative="1" as="geometry">
            <mxPoint x="660" y="540" as="targetPoint" />
            <mxPoint x="990" y="640" as="sourcePoint" />
            <Array as="points">
              <mxPoint x="700" y="640" />
              <mxPoint x="700" y="640" />
            </Array>
          </mxGeometry>
        </mxCell>
      </root>
    </mxGraphModel>
  </diagram>
</mxfile>
